<svg xmlns="http://www.w3.org/2000/svg" viewBox="0 0 64 64">
  <rect width="64" height="64" rx="14" fill="#e8edf4"/>
  <g fill="none" stroke-linecap="round" stroke-linejoin="round">
    <path d="M12 42C12 24 23 13 37 15c10 1.4 15 10 13 19-1.5 7-7 11.5-14.5 10.5C29 43.7 25 39 25.5 33.2 26 26.5 30.5 22 36.5 22.5c4.5.4 7.8 4.1 7.4 8.5" stroke="#356777" stroke-width="5"/>
    <path d="M8 47c4.2 3.1 8.4 3.1 12.6 0s8.4-3.1 12.6 0 8.4 3.1 12.6 0 8.4-3.1 12.6 0" stroke="#407e8d" stroke-width="4.5"/>
  </g>
  <circle cx="17" cy="17" r="3.6" fill="#bed6da"/>
  <circle cx="26" cy="11" r="4.4" fill="#dde9eb"/>
  <circle cx="36" cy="12.5" r="3.4" fill="#bed6da"/>
</svg>
